{
  "accessors": [
    {
      "bufferView": 2,
      "componentType": 5126,
      "count": 18,
      "max": [
        73.437774658203125,
        64.490196228027344,
        19.126426696777344
      ],
      "min": [
        73.289077758789062,
        52.312946319580078,
        8.3897171020507812
      ],
      "type": "VEC3"
    },
    {
      "bufferView": 2,
      "byteOffset": 216,
      "componentType": 5126,
      "count": 18,
      "max": [
        1,
        0.75116711854934692,
        0.66011208295822144
      ],
      "min": [
        -0.81333470344543457,
        -0.75116711854934692,
        -0.75116711854934692
      ],
      "type": "VEC3"
    },
    {
      "bufferView": 3,
      "componentType": 5126,
      "count": 18,
      "max": [
        1,
        0.6601148247718811,
        0.61095905303955078,
        1
      ],
      "min": [
        0,
        -0.53689426183700562,
        -0.75117784738540649,
        1
      ],
      "type": "VEC4"
    },
    {
      "bufferView": 0,
      "componentType": 5125,
      "count": 24,
      "max": [
        17
      ],
      "min": [
        0
      ],
      "type": "SCALAR"
    },
    {
      "bufferView": 2,
      "byteOffset": 432,
      "componentType": 5126,
      "count": 18,
      "max": [
        73.436309814453125,
        64.231086730957031,
        18.771022796630859
      ],
      "min": [
        73.315544128417969,
        64.023216247558594,
        2.7425861358642578
      ],
      "type": "VEC3"
    },
    {
      "bufferView": 2,
      "byteOffset": 648,
      "componentType": 5126,
      "count": 18,
      "max": [
        0.9849696159362793,
        0.17271293699741364,
        1
      ],
      "min": [
        -0.99998688697814941,
        -1,
        -1
      ],
      "type": "VEC3"
    },
    {
      "bufferView": 3,
      "byteOffset": 288,
      "componentType": 5126,
      "count": 18,
      "max": [
        1,
        0.98497217893600464,
        0.00071197084616869688,
        1
      ],
      "min": [
        -0.17271417379379272,
        -0.99999153614044189,
        -0.00071338278939947486,
        1
      ],
      "type": "VEC4"
    },
    {
      "bufferView": 0,
      "byteOffset": 96,
      "componentType": 5125,
      "count": 24,
      "max": [
        17
      ],
      "min": [
        0
      ],
      "type": "SCALAR"
    },
    {
      "bufferView": 2,
      "byteOffset": 864,
      "componentType": 5126,
      "count": 258,
      "max": [
        93.872474670410156,
        70.6417236328125,
        62.772537231445312
      ],
      "min": [
        22.935302734375,
        10.694828033447266,
        6.0054130554199219
      ],
      "type": "VEC3"
    },
    {
      "bufferView": 2,
      "byteOffset": 3960,
      "componentType": 5126,
      "count": 258,
      "max": [
        0.99148201942443848,
        0.99534213542938232,
        1
      ],
      "min": [
        -0.97399914264678955,
        -0.99959385395050049,
        0
      ],
      "type": "VEC3"
    },
    {
      "bufferView": 3,
      "byteOffset": 576,
      "componentType": 5126,
      "count": 258,
      "max": [
        0.99959385395050049,
        1,
        0.73296439647674561,
        1
      ],
      "min": [
        -0.99534213542938232,
        -1,
        -0.70349043607711792,
        1
      ],
      "type": "VEC4"
    },
    {
      "bufferView": 0,
      "byteOffset": 192,
      "componentType": 5125,
      "count": 720,
      "max": [
        257
      ],
      "min": [
        0
      ],
      "type": "SCALAR"
    },
    {
      "bufferView": 2,
      "byteOffset": 7056,
      "componentType": 5126,
      "count": 34,
      "max": [
        56.055572509765625,
        56.473217010498047,
        18.69120979309082
      ],
      "min": [
        51.438957214355469,
        56.092815399169922,
        17.858135223388672
      ],
      "type": "VEC3"
    },
    {
      "bufferView": 2,
      "byteOffset": 7464,
      "componentType": 5126,
      "count": 34,
      "max": [
        0.9732663631439209,
        0.98265922069549561,
        0.89010339975357056
      ],
      "min": [
        -0.97783011198043823,
        0.20940002799034119,
        -0.88425970077514648
      ],
      "type": "VEC3"
    },
    {
      "bufferView": 3,
      "byteOffset": 4704,
      "componentType": 5126,
      "count": 34,
      "max": [
        -0.209349125623703,
        0.97212707996368408,
        0.15562260150909424,
        1
      ],
      "min": [
        -0.99393141269683838,
        -0.9775923490524292,
        -0.18208155035972595,
        1
      ],
      "type": "VEC4"
    },
    {
      "bufferView": 1,
      "componentType": 5126,
      "count": 34,
      "max": [
        0.16101300716400146,
        0.97701400518417358
      ],
      "min": [
        0.027969000861048698,
        0.81954997777938843
      ],
      "type": "VEC2"
    },
    {
      "bufferView": 0,
      "byteOffset": 3072,
      "componentType": 5125,
      "count": 144,
      "max": [
        33
      ],
      "min": [
        0
      ],
      "type": "SCALAR"
    },
    {
      "bufferView": 2,
      "byteOffset": 7872,
      "componentType": 5126,
      "count": 153,
      "max": [
        58.823886871337891,
        56.890972137451172,
        21.923944473266602
      ],
      "min": [
        48.674713134765625,
        47.149909973144531,
        10.540079116821289
      ],
      "type": "VEC3"
    },
    {
      "bufferView": 2,
      "byteOffset": 9708,
      "componentType": 5126,
      "count": 153,
      "max": [
        0.99982154369354248,
        0.99989986419677734,
        0.977020263671875
      ],
      "min": [
        -0.99982154369354248,
        -0.99827909469604492,
        -0.93025410175323486
      ],
      "type": "VEC3"
    },
    {
      "bufferView": 3,
      "byteOffset": 5248,
      "componentType": 5126,
      "count": 153,
      "max": [
        0.95058387517929077,
        0.99983698129653931,
        0.98759937286376953,
        1
      ],
      "min": [
        -0.99079996347427368,
        -0.99969589710235596,
        -0.97325015068054199,
        -1
      ],
      "type": "VEC4"
    },
    {
      "bufferView": 1,
      "byteOffset": 272,
      "componentType": 5126,
      "count": 153,
      "max": [
        0.98618400096893311,
        0.98661202192306519
      ],
      "min": [
        0.030809000134468079,
        0.00043799998820759356
      ],
      "type": "VEC2"
    },
    {
      "bufferView": 0,
      "byteOffset": 3648,
      "componentType": 5125,
      "count": 501,
      "max": [
        152
      ],
      "min": [
        0
      ],
      "type": "SCALAR"
    },
    {
      "bufferView": 2,
      "byteOffset": 11544,
      "componentType": 5126,
      "count": 138,
      "max": [
        56.125106811523438,
        57.322105407714844,
        18.463211059570312
      ],
      "min": [
        51.432395935058594,
        55.455924987792969,
        10.346170425415039
      ],
      "type": "VEC3"
    },
    {
      "bufferView": 2,
      "byteOffset": 13200,
      "componentType": 5126,
      "count": 138,
      "max": [
        0.9997902512550354,
        0.9998166561126709,
        0.99969923496246338
      ],
      "min": [
        -0.99998921155929565,
        -0.22675900161266327,
        -0.89291208982467651
      ],
      "type": "VEC3"
    },
    {
      "bufferView": 3,
      "byteOffset": 7696,
      "componentType": 5126,
      "count": 138,
      "max": [
        0.99846363067626953,
        0.99978166818618774,
        0.99807262420654297,
        1
      ],
      "min": [
        -0.99978691339492798,
        -0.9999840259552002,
        -0.99807441234588623,
        1
      ],
      "type": "VEC4"
    },
    {
      "bufferView": 1,
      "byteOffset": 1496,
      "componentType": 5126,
      "count": 138,
      "max": [
        0.45275199413299561,
        0.98945701122283936
      ],
      "min": [
        0.159961998462677,
        0.61875897645950317
      ],
      "type": "VEC2"
    },
    {
      "bufferView": 0,
      "byteOffset": 5652,
      "componentType": 5125,
      "count": 462,
      "max": [
        137
      ],
      "min": [
        0
      ],
      "type": "SCALAR"
    },
    {
      "bufferView": 2,
      "byteOffset": 14856,
      "componentType": 5126,
      "count": 193,
      "max": [
        58.500514984130859,
        56.906524658203125,
        23.075172424316406
      ],
      "min": [
        49.211738586425781,
        46.185882568359375,
        16.648548126220703
      ],
      "type": "VEC3"
    },
    {
      "bufferView": 2,
      "byteOffset": 17172,
      "componentType": 5126,
      "count": 193,
      "max": [
        1,
        0.9767492413520813,
        0.999825119972229
      ],
      "min": [
        -1,
        -0.99967902898788452,
        -0.99697375297546387
      ],
      "type": "VEC3"
    },
    {
      "bufferView": 3,
      "byteOffset": 9904,
      "componentType": 5126,
      "count": 193,
      "max": [
        1,
        0.99971580505371094,
        0.9829753041267395,
        1
      ],
      "min": [
        -0.99980449676513672,
        -0.99958211183547974,
        -0.81822949647903442,
        1
      ],
      "type": "VEC4"
    },
    {
      "bufferView": 1,
      "byteOffset": 2600,
      "componentType": 5126,
      "count": 193,
      "max": [
        0.98186302185058594,
        0.95414602756500244
      ],
      "min": [
        0.0018060000147670507,
        0.0019920000340789557
      ],
      "type": "VEC2"
    },
    {
      "bufferView": 0,
      "byteOffset": 7500,
      "componentType": 5125,
      "count": 696,
      "max": [
        192
      ],
      "min": [
        0
      ],
      "type": "SCALAR"
    },
    {
      "bufferView": 2,
      "byteOffset": 19488,
      "componentType": 5126,
      "count": 105,
      "max": [
        107.92362976074219,
        105.32810211181641,
        10.523300170898438
      ],
      "min": [
        0,
        0,
        0
      ],
      "type": "VEC3"
    },
    {
      "bufferView": 2,
      "byteOffset": 20748,
      "componentType": 5126,
      "count": 105,
      "max": [
        1,
        1,
        1
      ],
      "min": [
        -1,
        -1,
        -1
      ],
      "type": "VEC3"
    },
    {
      "bufferView": 3,
      "byteOffset": 12992,
      "componentType": 5126,
      "count": 105,
      "max": [
        1,
        0.99999880790710449,
        0.99778145551681519,
        1
      ],
      "min": [
        -1,
        -0.99999791383743286,
        -0.99778157472610474,
        -1
      ],
      "type": "VEC4"
    },
    {
      "bufferView": 1,
      "byteOffset": 4144,
      "componentType": 5126,
      "count": 105,
      "max": [
        0.88280600309371948,
        0.98778200149536133
      ],
      "min": [
        0.019071999937295914,
        0.019997000694274902
      ],
      "type": "VEC2"
    },
    {
      "bufferView": 0,
      "byteOffset": 10284,
      "componentType": 5125,
      "count": 360,
      "max": [
        104
      ],
      "min": [
        0
      ],
      "type": "SCALAR"
    }
  ],
  "asset": {
    "extras": {
      "author": "Kaye (https://sketchfab.com/ohkaye)",
      "license": "CC-BY-4.0 (http://creativecommons.org/licenses/by/4.0/)",
      "source": "https://sketchfab.com/models/9d36d4a2b0394f27a5c3a65e1fff6000",
      "title": "Lonely Little Penguin"
    },
    "generator": "Sketchfab-3.20.7",
    "version": "2.0"
  },
  "bufferViews": [
    {
      "buffer": 0,
      "byteLength": 11724,
      "byteOffset": 0,
      "name": "floatBufferViews",
      "target": 34963
    },
    {
      "buffer": 0,
      "byteLength": 4984,
      "byteOffset": 11724,
      "byteStride": 8,
      "name": "floatBufferViews",
      "target": 34962
    },
    {
      "buffer": 0,
      "byteLength": 22008,
      "byteOffset": 16708,
      "byteStride": 12,
      "name": "floatBufferViews",
      "target": 34962
    },
    {
      "buffer": 0,
      "byteLength": 14672,
      "byteOffset": 38716,
      "byteStride": 16,
      "name": "floatBufferViews",
      "target": 34962
    }
  ],
  "buffers": [
    {
      "byteLength": 53388,
      "uri": "scene.bin"
    }
  ],
  "extensionsUsed": [
    "KHR_materials_unlit"
  ],
  "images": [
    {
      "uri": "textures/surfaceShader2SG_baseColor.jpg"
    },
    {
      "uri": "textures/surfaceShader7SG_baseColor.jpeg"
    },
    {
      "uri": "textures/surfaceShader4SG_baseColor.jpg"
    },
    {
      "uri": "textures/rampShader5SG_baseColor.jpg"
    },
    {
      "uri": "textures/surfaceShader3SG_baseColor.jpg"
    }
  ],
  "materials": [
    {
      "doubleSided": true,
      "emissiveFactor": [
        0,
        0,
        0
      ],
      "extensions": {
        "KHR_materials_unlit": {}
      },
      "name": "rampShader1SG",
      "pbrMetallicRoughness": {
        "baseColorFactor": [
          0.80149452669999999,
          1,
          0.98324679589999997,
          1
        ],
        "metallicFactor": 0,
        "roughnessFactor": 1
      }
    },
    {
      "doubleSided": true,
      "emissiveFactor": [
        0,
        0,
        0
      ],
      "extensions": {
        "KHR_materials_unlit": {}
      },
      "name": "rampShader5SG",
      "pbrMetallicRoughness": {
        "baseColorFactor": [
          1,
          1,
          1,
          1
        ],
        "baseColorTexture": {
          "index": 3,
          "texCoord": 0
        },
        "metallicFactor": 0,
        "roughnessFactor": 1
      }
    },
    {
      "doubleSided": true,
      "emissiveFactor": [
        0,
        0,
        0
      ],
      "extensions": {
        "KHR_materials_unlit": {}
      },
      "name": "surfaceShader2SG",
      "pbrMetallicRoughness": {
        "baseColorFactor": [
          1,
          1,
          1,
          1
        ],
        "baseColorTexture": {
          "index": 0,
          "texCoord": 0
        },
        "metallicFactor": 0,
        "roughnessFactor": 1
      }
    },
    {
      "doubleSided": true,
      "emissiveFactor": [
        0,
        0,
        0
      ],
      "extensions": {
        "KHR_materials_unlit": {}
      },
      "name": "surfaceShader3SG",
      "pbrMetallicRoughness": {
        "baseColorFactor": [
          1,
          1,
          1,
          1
        ],
        "baseColorTexture": {
          "index": 4,
          "texCoord": 0
        },
        "metallicFactor": 0,
        "roughnessFactor": 1
      }
    },
    {
      "doubleSided": true,
      "emissiveFactor": [
        0,
        0,
        0
      ],
      "extensions": {
        "KHR_materials_unlit": {}
      },
      "name": "surfaceShader4SG",
      "pbrMetallicRoughness": {
        "baseColorFactor": [
          1,
          1,
          1,
          1
        ],
        "baseColorTexture": {
          "index": 2,
          "texCoord": 0
        },
        "metallicFactor": 0,
        "roughnessFactor": 1
      }
    },
    {
      "doubleSided": true,
      "emissiveFactor": [
        0,
        0,
        0
      ],
      "extensions": {
        "KHR_materials_unlit": {}
      },
      "name": "surfaceShader7SG",
      "pbrMetallicRoughness": {
        "baseColorFactor": [
          1,
          1,
          1,
          1
        ],
        "baseColorTexture": {
          "index": 1,
          "texCoord": 0
        },
        "metallicFactor": 0,
        "roughnessFactor": 1
      }
    },
    {
      "doubleSided": true,
      "emissiveFactor": [
        0,
        0,
        0
      ],
      "extensions": {
        "KHR_materials_unlit": {}
      },
      "name": "surfaceShader8SG",
      "pbrMetallicRoughness": {
        "baseColorFactor": [
          0.26188917820000002,
          0.082888535700000002,
          0.0022548805000000001,
          1
        ],
        "metallicFactor": 0,
        "roughnessFactor": 1
      }
    },
    {
      "doubleSided": true,
      "emissiveFactor": [
        0,
        0,
        0
      ],
      "extensions": {
        "KHR_materials_unlit": {}
      },
      "name": "surfaceShader9SG",
      "pbrMetallicRoughness": {
        "baseColorFactor": [
          0,
          0,
          0,
          1
        ],
        "metallicFactor": 0,
        "roughnessFactor": 1
      }
    }
  ],
  "meshes": [
    {
      "primitives": [
        {
          "attributes": {
            "NORMAL": 1,
            "POSITION": 0,
            "TANGENT": 2
          },
          "indices": 3,
          "material": 6,
          "mode": 4
        }
      ]
    },
    {
      "primitives": [
        {
          "attributes": {
            "NORMAL": 5,
            "POSITION": 4,
            "TANGENT": 6
          },
          "indices": 7,
          "material": 7,
          "mode": 4
        }
      ]
    },
    {
      "primitives": [
        {
          "attributes": {
            "NORMAL": 9,
            "POSITION": 8,
            "TANGENT": 10
          },
          "indices": 11,
          "material": 0,
          "mode": 4
        }
      ]
    },
    {
      "primitives": [
        {
          "attributes": {
            "NORMAL": 13,
            "POSITION": 12,
            "TANGENT": 14,
            "TEXCOORD_0": 15
          },
          "indices": 16,
          "material": 1,
          "mode": 4
        }
      ]
    },
    {
      "primitives": [
        {
          "attributes": {
            "NORMAL": 18,
            "POSITION": 17,
            "TANGENT": 19,
            "TEXCOORD_0": 20
          },
          "indices": 21,
          "material": 2,
          "mode": 4
        }
      ]
    },
    {
      "primitives": [
        {
          "attributes": {
            "NORMAL": 23,
            "POSITION": 22,
            "TANGENT": 24,
            "TEXCOORD_0": 25
          },
          "indices": 26,
          "material": 3,
          "mode": 4
        }
      ]
    },
    {
      "primitives": [
        {
          "attributes": {
            "NORMAL": 28,
            "POSITION": 27,
            "TANGENT": 29,
            "TEXCOORD_0": 30
          },
          "indices": 31,
          "material": 4,
          "mode": 4
        }
      ]
    },
    {
      "primitives": [
        {
          "attributes": {
            "NORMAL": 33,
            "POSITION": 32,
            "TANGENT": 34,
            "TEXCOORD_0": 35
          },
          "indices": 36,
          "material": 5,
          "mode": 4
        }
      ]
    }
  ],
  "nodes": [
    {
      "children": [
        1
      ],
      "name": "RootNode (gltf orientation matrix)",
      "rotation": [
        -0.70710678118654746,
        -0,
        -0,
        0.70710678118654757
      ]
    },
    {
      "children": [
        2
      ],
      "matrix": [
        0,
        -1,
        0,
        0,
        1,
        0,
        0,
        0,
        0,
        0,
        1,
        0,
        -0.027104839682579041,
        0.50487357378005981,
        0,
        1
      ],
      "name": "RootNode (model correction matrix)"
    },
    {
      "children": [
        3
      ],
      "matrix": [
        1,
        0,
        0,
        0,
        0,
        1,
        0,
        0,
        0,
        0,
        1,
        0,
        -53.722923278808594,
        -52.398086547851562,
        -14.466427803039551,
        1
      ],
      "name": "Penguin_SprLowpoly.obj.cleaner.gles"
    },
    {
      "children": [
        4,
        5,
        6,
        7,
        8,
        9,
        10,
        11
      ],
      "name": ""
    },
    {
      "mesh": 0,
      "name": ""
    },
    {
      "mesh": 1,
      "name": ""
    },
    {
      "mesh": 2,
      "name": ""
    },
    {
      "mesh": 3,
      "name": ""
    },
    {
      "mesh": 4,
      "name": ""
    },
    {
      "mesh": 5,
      "name": ""
    },
    {
      "mesh": 6,
      "name": ""
    },
    {
      "mesh": 7,
      "name": ""
    }
  ],
  "samplers": [
    {
      "magFilter": 9729,
      "minFilter": 9987,
      "wrapS": 10497,
      "wrapT": 10497
    }
  ],
  "scene": 0,
  "scenes": [
    {
      "name": "OSG_Scene",
      "nodes": [
        0
      ]
    }
  ],
  "textures": [
    {
      "sampler": 0,
      "source": 0
    },
    {
      "sampler": 0,
      "source": 1
    },
    {
      "sampler": 0,
      "source": 2
    },
    {
      "sampler": 0,
      "source": 3
    },
    {
      "sampler": 0,
      "source": 4
    }
  ]
}

